<svg xmlns="http://www.w3.org/2000/svg" viewBox="0 0 74.5 73.03"><defs><style>.cls-1{fill:#acb7c9;}.cls-2{fill:#fff;}</style></defs><title>Recurso 168</title><g id="Capa_2" data-name="Capa 2"><g id="Capa_1-2" data-name="Capa 1"><rect class="cls-1" width="74.5" height="73.03" rx="16.46"/><path class="cls-2" d="M40.35,36.42l4.78-4.78-3-3c-8.68,8.68-15.5,13.94-15.5,20.64,0,8.51,7.45,8.51,10.63,8.51s10.63,0,10.63-8.51C47.88,44.2,43.08,39,40.35,36.42Zm-3.1,17.1c-5,0-6.38-.91-6.38-4.25s3.89-7.59,6.38-9.92c2.48,2.33,6.38,6.66,6.38,9.92S42.26,53.52,37.25,53.52Z"/><polygon class="cls-2" points="32.37 35.89 45.13 23.14 42.12 20.13 39.38 22.88 39.38 15.26 35.12 15.26 35.12 27.13 29.37 32.89 32.37 35.89"/></g></g></svg>